<svg xmlns="http://www.w3.org/2000/svg" xmlns:xlink="http://www.w3.org/1999/xlink" width="1644.781" height="432.44" viewBox="0 0 1644.781 432.44"><defs><linearGradient id="a" x1="-0.051" y1="0.197" x2="1.086" y2="1.131" gradientUnits="objectBoundingBox"><stop offset="0" stop-color="#bdc3c7"/><stop offset="0.023" stop-color="#bcc2c6"/><stop offset="1" stop-color="#2c3e50"/></linearGradient><filter id="b" x="0" y="0" width="1017.752" height="411.517" filterUnits="userSpaceOnUse"><feOffset dx="-8" dy="6" input="SourceAlpha"/><feGaussianBlur stdDeviation="3.5" result="c"/><feFlood flood-opacity="0.631"/><feComposite operator="in" in2="c"/><feComposite in="SourceGraphic"/></filter></defs><g transform="translate(-136.746 -366.318)"><g transform="matrix(1, 0, 0, 1, 136.75, 366.32)" filter="url(#b)"><path d="M230.357-9.376Q203.241,6.335,152.051,6.335q-59.807,0-96.806-36.239t-37-93.511q0-66.142,39.66-104.281t106.055-38.139q45.869,0,66.4,12.164v67.916a91.289,91.289,0,0,0-56.005-18.753q-34.465,0-54.612,20.147T99.593-128.736q0,34.465,19.26,54.1t52.964,19.64q29.9,0,58.54-18.753ZM339.531,6.335q-64.875,0-102-36.365T200.4-128.736q0-64.368,38.52-100.734t104.155-36.365q64.622,0,101.367,36.365T481.192-133.3q0,64.622-37.886,102.127T339.531,6.335Zm2.027-210.844q-28.383,0-44.095,19.513T281.752-129.75q0,74.758,60.313,74.758,57.526,0,57.526-76.786Q399.591-204.508,341.559-204.508ZM713.274-259.5,616.722,0h-91.23L433.5-259.5h85.655L564.265-99.593q7.6,27.116,8.87,46.122h1.014q1.774-17.993,9.376-44.6L629.646-259.5Zm7.807-41.054q-20.273,0-33.2-12.037a38.783,38.783,0,0,1-12.924-29.523q0-17.993,12.924-29.4t33.2-11.4q20.527,0,33.324,11.4t12.8,29.4q0,18.246-12.8,29.9T721.082-300.554ZM760.615,0h-80.08V-259.5h80.08ZM1015,0h-80.08V-35.732H933.9Q906.535,6.335,853.571,6.335q-48.656,0-78.306-34.338t-29.65-95.919q0-64.368,32.691-103.141t85.655-38.773q50.177,0,69.943,35.985h1.014V-384.182H1015Zm-78.56-126.2v-19.513q0-25.342-14.7-42.067t-38.266-16.726q-26.609,0-41.561,20.907t-14.952,57.4q0,34.211,14.445,52.711t40.04,18.5q24.328,0,39.66-19.513T936.438-126.2Z" transform="translate(0.25 388.68)" fill="url(#a)"/></g><text transform="translate(1203.527 751.759)" fill="#2c3e50" font-size="189" font-family="SegoeUI-Semibold, Segoe UI" font-weight="600" letter-spacing="-0.013em"><tspan x="0" y="0">tracker</tspan></text><text transform="translate(1524 433)" fill="#2c3e50" font-size="57" font-family="SegoeUI, Segoe UI" letter-spacing="-0.013em"><tspan x="0" y="0">version</tspan><tspan y="0" xml:space="preserve" font-family="SegoeUI-Semibold, Segoe UI" font-weight="600"> 1.1</tspan></text></g></svg>